<svg width="313" height="313" viewBox="0 0 313 313" fill="none" xmlns="http://www.w3.org/2000/svg">
<path class="path3" fill-rule="evenodd" clip-rule="evenodd" d="M202.975 302.353C202.785 302.625 202.979 303 203.31 303H236.821C237.176 303 237.363 302.578 237.126 302.313L230.475 294.887C230.407 294.812 230.37 294.713 230.37 294.612V205.471C230.37 205.244 230.553 205.06 230.779 205.06H250.845C265.587 205.06 273.777 222.343 273.777 230.574V294.64C273.777 294.724 273.751 294.807 273.703 294.876L268.495 302.353C268.305 302.625 268.499 303 268.83 303H301.59C301.933 303 302.124 302.601 301.91 302.331L295.98 294.882C295.921 294.809 295.89 294.719 295.89 294.625V222.343C292.614 189.422 266.133 181.192 253.302 181.192H207.402C203.152 184.918 198.256 188.42 192.91 191.133C202.485 201.731 207.04 215.254 208.251 222.31C208.255 222.333 208.257 222.355 208.257 222.378V294.64C208.257 294.724 208.231 294.807 208.183 294.876L202.975 302.353Z" fill="#EAEAEA"/>
<path class="path2" fill-rule="evenodd" clip-rule="evenodd" d="M139.639 180.772C139.393 180.512 139.558 180.066 139.914 180.053C151.424 179.645 182.844 171.825 198.773 142.211C201.17 138.196 206.063 130.575 212.995 128.373C213.254 128.291 213.367 127.973 213.225 127.74C169.713 56.0595 80.9006 116.016 109.502 180.07C140.035 248.45 220.422 216.794 218.491 170.479C218.475 170.099 218.004 169.933 217.771 170.233C215.042 173.751 211.526 177.577 207.402 181.192C203.152 184.918 198.256 188.42 192.91 191.133C177.353 199.026 157.987 200.228 139.639 180.772ZM127.1 157.071C126.881 157.047 126.714 156.858 126.733 156.638C127.058 152.962 127.91 148.679 129.449 144.331C135.152 128.209 150.274 111.171 182.793 120.689C183.016 120.754 183.153 120.987 183.076 121.207C181.134 126.746 177.116 134.224 170.826 140.948C161.479 150.938 147.117 159.26 127.1 157.071Z" fill="#EAEAEA"/>
<path class="path1" fill-rule="evenodd" clip-rule="evenodd" d="M32.415 51.5119C32.415 51.9275 32.9675 52.0849 33.1942 51.7373C40.3027 40.8348 49.6993 36.5123 53.6709 35.6986C53.6973 35.6932 53.7226 35.6908 53.7496 35.6908H126.492C126.847 35.6908 127.034 36.1153 126.794 36.3796L10.1076 165.041C9.86801 165.305 10.0546 165.729 10.4103 165.729H170.416C170.643 165.729 170.826 165.545 170.826 165.318V140.948C161.479 150.938 147.117 159.26 127.1 157.071C126.881 157.047 126.714 156.858 126.733 156.638C127.058 152.962 127.91 148.679 129.449 144.331H59.5603C59.203 144.331 59.017 143.903 59.2598 143.639L180.836 11.6911C181.079 11.4276 180.893 11 180.536 11H32.8245C32.5984 11 32.415 11.1842 32.415 11.4115V51.5119Z" fill="#EAEAEA"/>
<path class="path4" d="M10 223V302.8C10 302.91 10.0895 303 10.2 303H63" stroke="#EAEAEA" stroke-width="2" stroke-linecap="round"/>
<path class="path5" d="M302 91L302 11.2C302 11.0895 301.91 11 301.8 11L248 11" stroke="#EAEAEA" stroke-width="2" stroke-linecap="round"/>
</svg>
